<svg data-v-0dd9719b="" version="1.0" xmlns="http://www.w3.org/2000/svg" xmlns:xlink="http://www.w3.org/1999/xlink" width="100%" height="100%" viewBox="0 0 340.000000 250.000000" preserveAspectRatio="xMidYMid meet" color-interpolation-filters="sRGB" style="margin: auto;"> <rect data-v-0dd9719b="" x="0" y="0" width="100%" height="100%" fill="#ffffff" fill-opacity="1" class="background"></rect> <rect data-v-0dd9719b="" x="0" y="0" width="100%" height="100%" fill="url(#watermark)" fill-opacity="1" class="watermarklayer"></rect> <g data-v-0dd9719b="" class="iconmbgsvg" transform="translate(98.69499969482422,69.09382247924805)"><g fill="#000000" hollow-target="textNormalTran"><g opacity="0.55" transform="translate(15.055000305175781,0)"><g><rect fill="#000000" fill-opacity="0" stroke-width="2" x="0" y="0" width="112.5" height="111.81235402276002" class="image-rect"></rect> <svg x="0" y="0" width="112.5" height="111.81235402276002" filtersec="colorsb4927013127" class="image-svg-svg primary" style="overflow: visible;"><svg xmlns="http://www.w3.org/2000/svg" viewBox="-0.00007348154758801684 -0.02729550004005432 21.200592041015625 21.07109260559082"><g><g><path d="M7.79 11.21c.37.74 2.88 1.39 4.7 1.36a18.13 18.13 0 0 1-6.19-.44 18.29 18.29 0 0 1-4.73-1.77.56.56 0 0 0-.89.43 1.44 1.44 0 0 0 .71 1.29 18.18 18.18 0 0 0 6.21 2.09 1.81 1.81 0 0 1 .86.33c.11.16-.29.22-.91.13A18 18 0 0 1 .88 12.3c-.44-.24-.83-.06-.88.41A1.5 1.5 0 0 0 .71 14a20.79 20.79 0 0 0 7.48 2.45 2.12 2.12 0 0 1 1 .32c.12.17-.4.31-1.19.26a18.14 18.14 0 0 1-6-1.77.59.59 0 0 0-.9.47A1.34 1.34 0 0 0 1.79 17 18.12 18.12 0 0 0 9 18.92a1.81 1.81 0 0 1 .87.29c.13.17-.47.31-1.3.28A18.24 18.24 0 0 1 5 18.81a.59.59 0 0 0-.8.5.92.92 0 0 0 .65.93 18.28 18.28 0 0 0 3.76.76c1.66.16 6.64.07 9.47-3.65a14.21 14.21 0 0 0 2.45-6.55l-11.71-.36c-.88-.02-1.37.1-1.03.77z" fill="#3fcfdc"></path><path d="M13.42 9.79c-.37-.74-2.89-1.39-4.7-1.37a18.06 18.06 0 0 1 6.18.44 17.9 17.9 0 0 1 4.74 1.78c.44.22.84 0 .88-.44a1.41 1.41 0 0 0-.71-1.29 18.25 18.25 0 0 0-6.2-2.08 1.65 1.65 0 0 1-.86-.34c-.11-.16.28-.21.91-.13a18.39 18.39 0 0 1 6.67 2.33.53.53 0 0 0 .87-.41A1.45 1.45 0 0 0 20.5 7 20.61 20.61 0 0 0 13 4.51a2.17 2.17 0 0 1-1-.31c-.13-.18.4-.32 1.19-.27a18.14 18.14 0 0 1 6 1.77.58.58 0 0 0 .9-.47A1.36 1.36 0 0 0 19.41 4a18.24 18.24 0 0 0-7.16-1.9 1.91 1.91 0 0 1-.88-.29c-.13-.17.48-.31 1.3-.28a17.52 17.52 0 0 1 3.59.69.6.6 0 0 0 .8-.5.93.93 0 0 0-.65-.94A19.09 19.09 0 0 0 12.6 0C10.94-.12 6 0 3.13 3.7a14.3 14.3 0 0 0-2.46 6.54l11.72.31c.88.02 1.37-.1 1.03-.76z" fill="#3b2ba4"></path></g></g></svg></svg> <!----></g></g> <g transform="translate(0,32.79017639160156)"><g data-gra="path-name" fill-rule="" class="tp-name" transform="translate(0,0)"><g transform="scale(1)"><g><path d="M25.29 0L34.83 0 23.45-31.23 11.34-31.23-0.14 0 9.22 0 11.43-6.57 23.13-6.57ZM13.81-13.77L17.05-23.54 17.59-23.54 20.79-13.77ZM46.53-7.69L46.53-31.23 37.57-31.23 37.57 0 58.09 0 58.09-7.69ZM83.79-31.23L59.98-31.23 59.98-23.4 67.41-23.4 67.41 0 76.32 0 76.32-23.4 83.79-23.4ZM101.52 0.45C110.83 0.45 116.23-2.75 116.23-15.62 116.23-28.44 110.83-31.68 101.52-31.68 92.25-31.68 86.8-28.44 86.8-15.62 86.8-2.75 92.25 0.45 101.52 0.45ZM101.52-6.93C97.24-6.93 96.25-8.91 96.25-15.62 96.25-22.41 97.24-24.43 101.52-24.43 105.79-24.43 106.83-22.41 106.83-15.62 106.83-8.91 105.79-6.93 101.52-6.93ZM129.78 0.45C139.45 0.45 142.47-3.19 142.47-9.4 142.47-15.07 141.53-17.55 133.74-19.57 129.87-20.56 129.19-20.88 129.19-22.32 129.19-23.8 130.32-24.48 133.2-24.48 135.68-24.48 139.59-23.89 140.89-23.4L140.89-30.55C139.14-31.14 136.71-31.68 132.79-31.68 125.32-31.68 120.55-29.34 120.55-21.96 120.55-16.43 122.17-14.26 129.01-12.69 132.93-11.74 133.51-10.98 133.51-9.67 133.51-7.74 133.02-7.11 129.28-7.11 126.49-7.11 122.85-7.69 120.78-8.28L120.78-0.58C122.98-0.04 126.31 0.45 129.78 0.45Z" transform="translate(0.14000000059604645, 31.68000030517578)"></path></g> <!----> <!----> <!----> <!----> <!----> <!----> <!----></g></g> <g data-gra="path-slogan" fill-rule="" class="tp-slogan" fill="#000000" transform="translate(32.2400016784668,39.130001068115234)"><!----> <!----> <g transform="scale(1, 1)"><g transform="scale(1)"><path d="M2.59 0L2.59-6.58L0.05-6.58L0.05-8.00L6.95-8.00L6.95-6.58L4.30-6.58L4.30 0L2.59 0ZM10.96-8.00L13.82-8.00L13.82-6.58L11.60-6.58Q10.74-6.58 10.34-6.46Q9.95-6.34 9.68-5.99L9.68-5.99Q9.50-5.75 9.44-5.51Q9.37-5.27 9.32-4.69L9.32-4.69L13.82-4.69L13.82-3.26L9.32-3.26Q9.42-2.23 9.94-1.83Q10.45-1.43 11.69-1.43L11.69-1.43L13.82-1.43L13.82 0L11.60 0Q10.70 0 10.02-0.11L10.02-0.11Q8.94-0.29 8.30-1.06L8.30-1.06Q7.39-2.16 7.39-4.04L7.39-4.04Q7.39-6.13 8.68-7.30L8.68-7.30Q9.12-7.69 9.62-7.85Q10.12-8.00 10.96-8.00L10.96-8.00ZM18.80-1.43L21.25-1.43L21.25 0L18.46 0Q17.66 0 17.24-0.08L17.24-0.08Q15.77-0.37 15.14-1.73L15.14-1.73Q14.74-2.64 14.74-3.98L14.74-3.98Q14.74-5.59 15.36-6.60L15.36-6.60Q15.82-7.33 16.58-7.67Q17.34-8.00 18.54-8.00L18.54-8.00L21.25-8.00L21.25-6.58L18.73-6.58Q17.59-6.58 17.06-5.96L17.06-5.96Q16.62-5.46 16.62-4.14L16.62-4.14Q16.62-2.36 17.30-1.81L17.30-1.81Q17.78-1.43 18.80-1.43L18.80-1.43ZM27.24-8.00L28.93-8.00L28.93 0L27.24 0L27.24-3.31L24.14-3.31L24.14 0L22.44 0L22.44-8.00L24.14-8.00L24.14-4.74L27.24-4.74L27.24-8.00ZM35.46 0L32.20-5.87L32.20 0L30.56 0L30.56-8.00L32.75-8.00L35.93-2.04L35.93-8.00L37.55-8.00L37.55 0L35.46 0ZM42.70-8.05L42.70-8.05Q43.90-8.05 44.81-7.64L44.81-7.64Q45.88-7.15 46.31-6L46.31-6Q46.64-5.10 46.64-3.89L46.64-3.89Q46.64-2.66 46.24-1.76L46.24-1.76Q45.72-0.70 44.65-0.26L44.65-0.26Q43.86 0.05 42.83 0.05L42.83 0.05Q41.47 0.05 40.48-0.46L40.48-0.46Q39.64-0.88 39.19-1.78Q38.75-2.68 38.75-3.96L38.75-3.96Q38.75-6.25 39.89-7.22L39.89-7.22Q40.85-8.04 42.70-8.05ZM42.71-6.71L42.71-6.71Q41.53-6.71 41.03-5.94L41.03-5.94Q40.62-5.34 40.62-4.01L40.62-4.01Q40.62-2.60 41.12-1.94L41.12-1.94Q41.63-1.30 42.72-1.30L42.72-1.30Q43.78-1.30 44.27-1.96Q44.77-2.62 44.77-4.00L44.77-4.00Q44.77-5.26 44.36-5.92L44.36-5.92Q43.90-6.70 42.71-6.71ZM47.75-3.50L47.75-8.00L49.44-8.00L49.44-3.50Q49.48-2.65 49.51-2.38L49.51-2.38Q49.60-1.82 50.04-1.63Q50.48-1.43 51.60-1.43L51.60-1.43L53.23-1.43L53.23 0L51.42 0Q50.14 0 49.56-0.14L49.56-0.14Q48.24-0.53 47.88-1.82L47.88-1.82Q47.75-2.33 47.75-3.50L47.75-3.50ZM57.74-8.05L57.74-8.05Q58.94-8.05 59.86-7.64L59.86-7.64Q60.92-7.15 61.36-6L61.36-6Q61.69-5.10 61.69-3.89L61.69-3.89Q61.69-2.66 61.28-1.76L61.28-1.76Q60.77-0.70 59.70-0.26L59.70-0.26Q58.91 0.05 57.88 0.05L57.88 0.05Q56.52 0.05 55.52-0.46L55.52-0.46Q54.68-0.88 54.24-1.78Q53.80-2.68 53.80-3.96L53.80-3.96Q53.80-6.25 54.94-7.22L54.94-7.22Q55.90-8.04 57.74-8.05ZM57.76-6.71L57.76-6.71Q56.58-6.71 56.08-5.94L56.08-5.94Q55.67-5.34 55.67-4.01L55.67-4.01Q55.67-2.60 56.17-1.94L56.17-1.94Q56.68-1.30 57.77-1.30L57.77-1.30Q58.82-1.30 59.32-1.96Q59.82-2.62 59.82-4.00L59.82-4.00Q59.82-5.26 59.41-5.92L59.41-5.92Q58.94-6.70 57.76-6.71ZM65.83-3.32L65.83-4.75L69.76-4.75L69.76 0L66.18 0Q65.26 0 64.71-0.14Q64.16-0.28 63.72-0.62L63.72-0.62Q62.46-1.60 62.46-3.97L62.46-3.97Q62.46-5.52 63.06-6.55L63.06-6.55Q63.50-7.31 64.27-7.66Q65.04-8.00 66.26-8.00L66.26-8.00L69.76-8.00L69.76-6.58L66.46-6.58Q65.39-6.58 64.91-6.11L64.91-6.11Q64.33-5.56 64.33-4.13L64.33-4.13Q64.33-3.40 64.48-2.81Q64.63-2.22 64.90-1.93L64.90-1.93Q65.12-1.67 65.53-1.55Q65.93-1.43 66.52-1.43L66.52-1.43L68.06-1.43L68.06-3.32L65.83-3.32ZM73.36 0L73.36-3.50L70.39-8.00L72.38-8.00L74.22-4.87L76.15-8.00L78.18-8.00L75.06-3.44L75.06 0L73.36 0Z" transform="translate(-0.048, 8.052)"></path></g></g></g></g></g></g><defs v-gra="od"></defs></svg>